{"title":"Requiem For A Dream HDMux 1080p x264 ITA AC3 ENG DTS Multisub Ve","uid":9046306,"size":8872946121,"categoryP":"video","categoryS":"hd___movies","magnet":"?xt=urn:btih:740f04e90465a149a75b23d4163e737fa7d4e003&amp;dn=Requiem+For+A+Dream+HDMux+1080p+x264+ITA+AC3+ENG+DTS+Multisub+Ve&amp;tr=udp%3A%2F%2Ftracker.openbittorrent.com%3A80&amp;tr=udp%3A%2F%2Fopen.demonii.com%3A1337&amp;tr=udp%3A%2F%2Ftracker.coppersurfer.tk%3A6969&amp;tr=udp%3A%2F%2Fexodus.desync.com%3A6969","seeders":6,"leechers":4,"uploader":"OrgazmoITA","files":1,"time":1381760858,"description":"General\nUnique ID: 222056751699641725232662120182774183627 (0xA70E93227FDD36278702188ADB9F36CB)\nComplete name: Requiem.For.A.Dream.HDMux.1080p.x264.ITA-AC3.ENG-DTS.Multisub.VeryStrangeFish.mkv\nFormat: Matroska\nFormat version: Version 4 / Version 2\nFile size: 8.26 GiB\nDuration: 1h 41mn\nOverall bit rate: 11.6 Mbps\nEncoded date: UTC 2013-09-11 12:49:43\nWriting application: mkvmerge v6.2.0 ('Promised Land') built on Apr 28 2013 18:50:30\nWriting library: libebml v1.3.0 + libmatroska v1.4.0\n\nVideo\nID: 1\nFormat: AVC\nFormat/Info: Advanced Video Codec\nFormat profile: &lt;a class=&quot;__cf_email__&quot; href=&quot;/cdn-cgi/l/email-protection&quot; data-cfemail=&quot;3b73525c537b770e150a&quot;&gt;[email&amp;#160;protected]&lt;/a&gt;&lt;script cf-hash='f9e31' type=&quot;text/javascript&quot;&gt;\n/* &lt;![CDATA[ */!function(){try{var t=&quot;currentScript&quot;in document?document.currentScript:function(){for(var t=document.getElementsByTagName(&quot;script&quot;),e=t.length;e--;)if(t[e].getAttribute(&quot;cf-hash&quot;))return t[e]}();if(t&amp;&amp;t.previousSibling){var e,r,n,i,c=t.previousSibling,a=c.getAttribute(&quot;data-cfemail&quot;);if(a){for(e=&quot;&quot;,r=parseInt(a.substr(0,2),16),n=2;a.length-n;n+=2)i=parseInt(a.substr(n,2),16)^r,e+=String.fromCharCode(i);e=document.createTextNode(e),c.parentNode.replaceChild(e,c)}}}catch(u){}}();/* ]]&gt; */&lt;/script&gt;\nFormat settings, CABAC: Yes\nFormat settings, ReFrames: 5 frames\nCodec ID: V_MPEG4/ISO/AVC\nDuration: 1h 41mn\nBit rate: 9 689 Kbps\nWidth: 1 920 pixels\nHeight: 1 080 pixels\nDisplay aspect ratio: 16:9\nFrame rate mode: Constant\nFrame rate: 23.976 fps\nColor space: YUV\nChroma subsampling: 4:2:0\nBit depth: 8 bits\nScan type: Progressive\nBits/(Pixel*Frame): 0.195\nStream size: 6.71 GiB (81%)\nWriting library: x264 core 65 r999 cc51047\nEncoding settings: cabac=1 // deblock=1:0:0 / analyse=0x3:0x133 / me=umh / subme=7 / psy_rd=1.0:0.0 // me_range=16 / chroma_me=1 / trellis=1 / 8x8dct=1 / cqm=2 / deadzone=21,11 / chroma_qp_offset=-2 / threads=3 / nr=0 / decimate=1 / mbaff=0 / bframes=3 / b_pyramid=1 / b_adapt=1 / b_bias=0 / direct=1 / wpredb=1 / keyint=250 / keyint_min=25 / scenecut=40(pre) / rc=2pass / bitrate=9689 / ratetol=1.0 / qcomp=0.60 / qpmin=10 / qpmax=51 / qpstep=4 / cplxblur=20.0 / qblur=0.5 / ip_ratio=1.40 / pb_ratio=1.30 / aq=1:1.00\nLanguage: English\nDefault: Yes\nForced: No\n\nAudio #1\nID: 2\nFormat: AC-3\nFormat/Info: Audio Coding 3\nMode extension: CM (complete main)\nFormat settings, Endianness: Big\nCodec ID: A_AC3\nDuration: 1h 41mn\nBit rate mode: Constant\nBit rate: 448 Kbps\nChannel count: 6 channels\nChannel positions: Front: L C R, Side: L R, LFE\nSampling rate: 48.0 KHz\nBit depth: 16 bits\nCompression mode: Lossy\nStream size: 325 MiB (4%)\nTitle: Italian AC3\nLanguage: Italian\nDefault: Yes\nForced: No\n\nAudio #2\nID: 3\nFormat: DTS\nFormat/Info: Digital Theater Systems\nMode: 16\nFormat settings, Endianness: Big\nCodec ID: A_DTS\nDuration: 1h 41mn\nBit rate mode: Constant\nBit rate: 1 509 Kbps\nChannel count: 6 channels\nChannel positions: Front: L C R, Side: L R, LFE\nSampling rate: 48.0 KHz\nBit depth: 16 bits\nCompression mode: Lossy\nStream size: 1.07 GiB (13%)\nTitle: English DTS 5.1\nLanguage: English\nDefault: No\nForced: No\n\nText #1\nID: 4\nFormat: UTF-8\nCodec ID: S_TEXT/UTF8\nCodec ID/Info: UTF-8 Plain Text\nTitle: Italiano\nLanguage: Italian\nDefault: No\nForced: No\n\nText #2\nID: 5\nFormat: UTF-8\nCodec ID: S_TEXT/UTF8\nCodec ID/Info: UTF-8 Plain Text\nTitle: English\nLanguage: English\nDefault: No\nForced: No","torrent":{"xt":"urn:btih:740f04e90465a149a75b23d4163e737fa7d4e003","amp;dn":"Requiem+For+A+Dream+HDMux+1080p+x264+ITA+AC3+ENG+DTS+Multisub+Ve","amp;tr":["udp%3A%2F%2Ftracker.openbittorrent.com%3A80","udp%3A%2F%2Fopen.demonii.com%3A1337","udp%3A%2F%2Ftracker.coppersurfer.tk%3A6969","udp%3A%2F%2Fexodus.desync.com%3A6969"],"infoHash":"740f04e90465a149a75b23d4163e737fa7d4e003","infoHashBuffer":{"type":"Buffer","data":[116,15,4,233,4,101,161,73,167,91,35,212,22,62,115,127,167,212,224,3]},"announce":[],"urlList":[]}}